<?xml version="1.0" encoding="UTF-8"?>
<svg  width="25" height="25" xmlns="http://www.w3.org/2000/svg" version="1.1" xmlns:xlink="http://www.w3.org/1999/xlink" xmlns:avocode="https://avocode.com/" viewBox="0 0 25 25"><defs></defs><desc>Generated with Avocode.</desc><g><g><title>Path 32</title><path d="M23.44202,0.42535h-21.85883c-0.75018,0 -1.35779,0.60815 -1.35779,1.35779v0v0v21.85883c0,0.75012 0.6076,1.35779 1.35779,1.35779v0v0h11.76575v0v-9.51483v0h-3.20087v0v-3.71198v0h3.20087v0v-2.73108c0,-3.17505 1.94116,-4.90454 4.77032,-4.90454c0.95715,-0.00153 1.91327,0.047 2.8653,0.14453v3.31958v0h-1.96698c-1.54883,0 -1.83789,0.73315 -1.83789,1.80701v2.3645v0h3.67578v0l-0.4801,3.71198v0h-3.19568v0v9.51483v0h6.26233c0.74963,0 1.35779,-0.60767 1.35779,-1.35779v0v0v-21.85883c0,-0.74963 -0.60815,-1.35779 -1.35779,-1.35779z" fill="#000000" fill-opacity="1"></path></g></g></svg>
