<?xml version="1.0" encoding="UTF-8"?>
<svg  width="25" height="24" xmlns="http://www.w3.org/2000/svg" version="1.1" xmlns:xlink="http://www.w3.org/1999/xlink" xmlns:avocode="https://avocode.com/" viewBox="0 0 25 24"><defs></defs><desc>Generated with Avocode.</desc><g><g><title>Group 69</title><g><title>Group 68</title><g><title>Rectangle 60</title><path d="M0.92797,24.00899v0v-15.77921v0h5.07404v0v15.77921v0z" fill="#000000" fill-opacity="1"></path></g><g><title>Path 35</title><path d="M3.44006,6.16418c1.65771,0 3.00098,-1.30566 3.00098,-2.9126c0,-1.60791 -1.34326,-2.91162 -3.00098,-2.91162c-1.65698,0 -3,1.30371 -3,2.91162c0,1.60693 1.34302,2.9126 3,2.9126z" fill="#000000" fill-opacity="1"></path></g></g><g><title>Path 36</title><path d="M14.11212,15.72605c0,-2.21851 1.06128,-3.54028 3.0918,-3.54028c1.86548,0 2.76221,1.26904 2.76221,3.54028v8.2832v0h5.05005v0v-9.99097c0,-4.22656 -2.48853,-6.27075 -5.96387,-6.27075c-3.47705,0 -4.94019,2.60767 -4.94019,2.60767v0v-2.12524v0h-4.86694v0v15.7793v0h4.86694v0z" fill="#000000" fill-opacity="1"></path></g></g></g></svg>
