<?xml version="1.0" encoding="UTF-8"?>
<svg  width="25" height="25" xmlns="http://www.w3.org/2000/svg" version="1.1" xmlns:xlink="http://www.w3.org/1999/xlink" xmlns:avocode="https://avocode.com/" viewBox="0 0 25 25"><defs></defs><desc>Generated with Avocode.</desc><g><g><title>Group 66</title><g><title>Path 29</title><path d="M17.31299,0.54004c1.01612,0.02112 2.02198,0.21405 2.97388,0.57111c1.6593,0.63183 2.96972,1.94226 3.60156,3.60156c0.35705,0.95185 0.54992,1.95771 0.57104,2.97388c0.07202,1.30682 0.07202,1.72357 0.07202,5.04724c0,3.32373 -0.01538,3.74048 -0.07202,5.04736c-0.02111,1.01667 -0.21398,2.02198 -0.57104,2.97388c-0.63183,1.65924 -1.94226,2.96973 -3.60156,3.6015c-0.95191,0.35706 -1.95777,0.54999 -2.97388,0.57111c-1.30682,0.07202 -1.72357,0.07202 -5.0473,0.07202c-3.32373,0 -3.74048,-0.01544 -5.0473,-0.07202c-1.01673,-0.02112 -2.02204,-0.21405 -2.97388,-0.57111c-1.6593,-0.63177 -2.96972,-1.94226 -3.60156,-3.6015c-0.35705,-0.95191 -0.54998,-1.95722 -0.57104,-2.97388c-0.07208,-1.30688 -0.07208,-1.72363 -0.07208,-5.04736c0,-3.32367 0.01544,-3.74042 0.07208,-5.04724c0.02105,-1.01618 0.21398,-2.02204 0.57104,-2.97388c0.63183,-1.6593 1.94226,-2.96972 3.60156,-3.60156c0.95185,-0.35706 1.95716,-0.54999 2.97388,-0.57111c1.30682,-0.07196 1.72357,-0.07196 5.0473,-0.07196c3.32373,0 3.74048,0.01538 5.0473,0.07196zM12.26571,2.67524c-3.26715,0 -3.65814,0.01031 -4.94952,0.07202c-0.77698,0.00672 -1.54663,0.14978 -2.27417,0.42194c-1.065,0.41363 -1.90673,1.25543 -2.32043,2.32037c-0.2721,0.72754 -0.41517,1.49725 -0.42188,2.27417c-0.07202,1.29138 -0.07202,1.68243 -0.07202,4.94958c0,3.26709 0.01025,3.65808 0.07202,4.94952c0.00671,0.77692 0.14978,1.54657 0.42187,2.27411c0.41369,1.06506 1.25543,1.90673 2.32043,2.32043c0.72754,0.27215 1.49719,0.41522 2.27417,0.42187c1.29138,0.07202 1.67724,0.07202 4.94952,0.07202c3.27227,0 3.65814,-0.01025 4.94952,-0.07202c0.77698,-0.00666 1.54663,-0.14972 2.27417,-0.42188c1.065,-0.41369 1.90673,-1.25537 2.32043,-2.32043c0.27209,-0.72754 0.41516,-1.49719 0.42187,-2.27411c0.07202,-1.29144 0.07202,-1.68243 0.07202,-4.94952c0,-3.26715 -0.01025,-3.6582 -0.07202,-4.94958c-0.00672,-0.77692 -0.14979,-1.54663 -0.42188,-2.27417c-0.41369,-1.06494 -1.25543,-1.90673 -2.32043,-2.32037c-0.72754,-0.27216 -1.49719,-0.41523 -2.27417,-0.42194c-1.29138,-0.07202 -1.68243,-0.07202 -4.94952,-0.07202z" fill="#000000" fill-opacity="1"></path></g><g><title>Path 30</title><path d="M12.26571,16.78823c-2.25354,0 -4.08002,-1.82654 -4.08002,-4.08008c0,-2.25354 1.82648,-4.07996 4.08002,-4.07996c2.25354,0 4.08002,1.82642 4.08002,4.07996c0,2.25354 -1.82648,4.08008 -4.08002,4.08008zM12.26571,6.42093c-3.47241,0 -6.28729,2.81482 -6.28729,6.28723c0,3.47247 2.81488,6.28729 6.28729,6.28729c3.47241,0 6.28729,-2.81482 6.28729,-6.28729c0,-3.47241 -2.81488,-6.28723 -6.28729,-6.28723z" fill="#000000" fill-opacity="1"></path></g><g><title>Ellipse 21</title><path d="M17.32843,6.17394c0,-0.81268 0.65881,-1.47149 1.47149,-1.47149c0.81268,0 1.47149,0.65881 1.47149,1.47149c0,0.81268 -0.65881,1.47149 -1.47149,1.47149c-0.81268,0 -1.47149,-0.65881 -1.47149,-1.47149z" fill="#000000" fill-opacity="1"></path></g></g></g></svg>
