<svg width="25" height="25" viewBox="0 0 25 25" fill="none" xmlns="http://www.w3.org/2000/svg">
<g clip-path="url(#clip0_324_186)">
<rect width="25" height="25" fill="white"/>
<path d="M18.4293 11.587C18.3216 11.5354 18.2122 11.4857 18.1014 11.4382C17.9084 7.88258 15.9656 5.847 12.7034 5.82617C12.6886 5.82608 12.6739 5.82608 12.6591 5.82608C10.7078 5.82608 9.08502 6.65897 8.08618 8.17457L9.88032 9.40531C10.6265 8.27322 11.7975 8.03187 12.66 8.03187C12.6699 8.03187 12.6799 8.03187 12.6898 8.03197C13.7639 8.03881 14.5745 8.35112 15.0991 8.96016C15.4808 9.40355 15.7362 10.0163 15.8626 10.7896C14.9103 10.6277 13.8803 10.5779 12.7793 10.6411C9.67767 10.8197 7.68372 12.6286 7.81764 15.1422C7.88559 16.4172 8.52077 17.5141 9.6061 18.2306C10.5237 18.8363 11.7056 19.1326 12.9339 19.0655C14.556 18.9766 15.8285 18.3577 16.7163 17.226C17.3905 16.3667 17.8169 15.253 18.0052 13.8497C18.7782 14.3163 19.3512 14.9302 19.6676 15.6682C20.2056 16.9228 20.237 18.9844 18.5548 20.6651C17.081 22.1375 15.3094 22.7745 12.6319 22.7941C9.66198 22.7721 7.41584 21.8197 5.95546 19.9632C4.58794 18.2247 3.88119 15.7138 3.85482 12.5C3.88119 9.28617 4.58794 6.77521 5.95546 5.03681C7.41584 3.18033 9.66195 2.22786 12.6319 2.20579C15.6234 2.22803 17.9087 3.18508 19.425 5.05052C20.1685 5.96531 20.729 7.11573 21.0985 8.45707L23.201 7.89612C22.7531 6.24508 22.0483 4.82236 21.0892 3.64245C19.1453 1.25087 16.3023 0.0254099 12.6392 0H12.6246C8.96894 0.0253216 6.1578 1.25544 4.26929 3.65616C2.58877 5.7925 1.72191 8.76507 1.69278 12.4912L1.69269 12.5L1.69278 12.5088C1.72191 16.2349 2.58877 19.2076 4.26929 21.3439C6.1578 23.7445 8.96894 24.9747 12.6246 25H12.6392C15.8893 24.9775 18.1802 24.1266 20.0674 22.241C22.5366 19.7742 22.4622 16.6822 21.6484 14.784C21.0646 13.4228 19.9514 12.3172 18.4293 11.587ZM12.8178 16.8629C11.4584 16.9395 10.0461 16.3293 9.97649 15.0224C9.92487 14.0534 10.6661 12.9721 12.9012 12.8433C13.1571 12.8286 13.4083 12.8214 13.6551 12.8214C14.4669 12.8214 15.2264 12.9002 15.9169 13.0512C15.6594 16.2676 14.1487 16.7898 12.8178 16.8629Z" fill="black"/>
</g>
<defs>
<clipPath id="clip0_324_186">
<rect width="25" height="25" fill="white"/>
</clipPath>
</defs>
</svg>
