<?xml version="1.0" encoding="UTF-8"?>
<svg  width="30" height="21" xmlns="http://www.w3.org/2000/svg" version="1.1" xmlns:xlink="http://www.w3.org/1999/xlink" xmlns:avocode="https://avocode.com/" viewBox="0 0 30 21"><defs></defs><desc>Generated with Avocode.</desc><g><g><title>Group 67</title><g><title>Path 31</title><path d="M11.79639,5.72094c3.01172,1.57178 6.00049,3.13135 9.03174,4.71338c-3.02637,1.57031 -6.01611,3.11963 -9.03174,4.68384zM3.82982,20.33009c2.46119,0.81103 21.71778,0.82324 23.58765,-0.15894c0.69263,-0.36206 1.23779,-0.86939 1.57129,-1.58643c1.23486,-2.64771 1.19799,-12.64526 0.14062,-15.39209c-0.40381,-1.04761 -1.14599,-1.7334 -2.19238,-2.10889c-1.78564,-0.64356 -17.28711,-0.72144 -22.30151,-0.1814c-0.97436,0.10498 -1.79321,0.54345 -2.42944,1.29199c-1.86084,2.18994 -1.57471,13.30835 -0.60913,15.9668c0.39819,1.08838 1.13574,1.80811 2.23291,2.16895z" fill="#000000" fill-opacity="1"></path></g></g></g></svg>
